# Blender v2.66 (sub 1) OBJ File: ''
# www.blender.org
mtllib cube.mtl
o Cube
v 1.000000 -1.000000 -1.000000
v 1.000000 -1.000000 1.000000
v -1.000000 -1.000000 1.000000
v -1.000000 -1.000000 -1.000000
v 1.000000 1.000000 -0.999999
v 0.999999 1.000000 1.000001
v -1.000000 1.000000 1.000000
v -1.000000 1.000000 -1.000000
vt 0.666467 0.666467
vt 0.333533 0.666467
vt 0.333533 0.333533
vt 0.333134 0.333133
vt 0.000200 0.333134
vt 0.000200 0.000200
vt 0.999800 0.333533
vt 0.999800 0.666467
vt 0.666866 0.666467
vt 0.999800 0.000200
vt 0.999800 0.333134
vt 0.666866 0.000200
vt 0.333533 0.333134
vt 0.333533 0.000200
vt 0.666467 0.333134
vt 0.333134 0.333533
vt 0.333134 0.666467
vt 0.000200 0.666467
vt 0.666467 0.333533
vt 0.333133 0.000200
vt 0.666866 0.333533
vt 0.666866 0.333134
vt 0.666467 0.000200
vt 0.000200 0.333533
vn 0.000000 -1.000000 0.000000
vn -0.000000 1.000000 0.000000
vn 1.000000 -0.000000 0.000001
vn -0.000000 -0.000000 1.000000
vn -1.000000 -0.000000 -0.000000
vn 0.000000 0.000000 -1.000000
vn 1.000000 0.000000 -0.000000
usemtl Material
s off
f 1/1/1 2/2/1 3/3/1
f 5/4/2 8/5/2 7/6/2
f 1/7/3 5/8/3 6/9/3
f 2/10/4 6/11/4 3/12/4
f 3/13/5 7/14/5 4/15/5
f 5/16/6 1/17/6 4/18/6
f 4/19/1 1/1/1 3/3/1
f 6/20/2 5/4/2 7/6/2
f 2/21/7 1/7/7 6/9/7
f 6/11/4 7/22/4 3/12/4
f 7/14/5 8/23/5 4/15/5
f 8/24/6 5/16/6 4/18/6
